<svg width="20" height="21" viewBox="0 0 20 21" fill="none" xmlns="http://www.w3.org/2000/svg">
<g clip-path="url(#clip0_215_13727)">
<path d="M19.1463 0.863248L19.1222 0.841292C18.6619 0.420806 18.0652 0.189209 17.442 0.189209C16.7433 0.189209 16.0726 0.484954 15.6016 1.00054L6.69593 10.7504C6.61476 10.8393 6.55319 10.9441 6.51512 11.0583L5.46795 14.1976C5.34688 14.5605 5.40764 14.9619 5.63047 15.2712C5.85507 15.583 6.21691 15.7691 6.59847 15.7691H6.59853C6.76357 15.7691 6.92489 15.7352 7.07789 15.6682L10.1099 14.3418C10.2201 14.2936 10.319 14.2228 10.4001 14.1339L19.3058 4.38409C20.2326 3.3696 20.1611 1.79027 19.1463 0.863248ZM7.4743 13.6176L8.08878 11.7755L8.1406 11.7188L9.30524 12.7825L9.25341 12.8393L7.4743 13.6176ZM18.036 3.22422L10.4651 11.5128L9.30048 10.4491L16.8714 2.16042C17.0195 1.9983 17.2221 1.90899 17.442 1.90899C17.6349 1.90899 17.8197 1.98076 17.9627 2.11135L17.9867 2.1333C18.3011 2.42045 18.3232 2.90984 18.036 3.22422Z" fill="#253D4E"/>
<path d="M17.4186 8.12243C16.9437 8.12243 16.5587 8.50743 16.5587 8.98232V16.2826C16.5587 17.4884 15.5776 18.4694 14.3719 18.4694H3.95005C2.7442 18.4694 1.76324 17.4884 1.76324 16.2826V5.94547C1.76324 4.73968 2.74426 3.75866 3.95005 3.75866H11.4934C11.9683 3.75866 12.3533 3.37366 12.3533 2.89877C12.3533 2.42388 11.9683 2.03888 11.4934 2.03888H3.95005C1.79591 2.03888 0.043457 3.79139 0.043457 5.94547V16.2826C0.043457 18.4366 1.79597 20.1891 3.95005 20.1891H14.3718C16.5259 20.1891 18.2784 18.4366 18.2784 16.2826V8.98232C18.2784 8.50743 17.8934 8.12243 17.4186 8.12243Z" fill="#253D4E"/>
</g>
<defs>
<clipPath id="clip0_215_13727">
<rect width="20" height="20" fill="white" transform="translate(0 0.189209)"/>
</clipPath>
</defs>
</svg>
