<svg width="25" height="25" viewBox="0 0 25 25" fill="none" xmlns="http://www.w3.org/2000/svg">
<g clip-path="url(#clip0_96_5601)">
<path d="M12.0841 0.344116C9.71074 0.344116 7.39066 1.0479 5.41727 2.36648C3.44388 3.68506 1.90581 5.5592 0.997557 7.75191C0.0893059 9.94463 -0.148334 12.3574 0.314688 14.6852C0.777711 17.013 1.9206 19.1512 3.59883 20.8294C5.27706 22.5076 7.41526 23.6505 9.74303 24.1135C12.0708 24.5766 14.4836 24.3389 16.6763 23.4307C18.869 22.5224 20.7432 20.9844 22.0617 19.011C23.3803 17.0376 24.0841 14.7175 24.0841 12.3441C24.0807 9.16257 22.8153 6.11233 20.5656 3.86264C18.3159 1.61294 15.2657 0.347557 12.0841 0.344116V0.344116ZM12.0841 22.3441C10.1063 22.3441 8.1729 21.7576 6.52841 20.6588C4.88392 19.56 3.60219 17.9982 2.84532 16.171C2.08844 14.3437 1.89041 12.333 2.27626 10.3932C2.66211 8.4534 3.61452 6.67157 5.01304 5.27305C6.41157 3.87452 8.1934 2.92212 10.1332 2.53626C12.073 2.15041 14.0837 2.34844 15.9109 3.10532C17.7382 3.8622 19.3 5.14392 20.3988 6.78841C21.4976 8.43291 22.0841 10.3663 22.0841 12.3441C22.0812 14.9954 21.0267 17.5372 19.152 19.412C17.2772 21.2867 14.7354 22.3412 12.0841 22.3441ZM13.0841 11.3441H17.0841V13.3441H13.0841V17.3441H11.0841V13.3441H7.08411V11.3441H11.0841V7.34412H13.0841V11.3441Z" fill="#3BB77E"/>
</g>
<defs>
<clipPath id="clip0_96_5601">
<rect width="24" height="24" fill="white" transform="translate(0.0841064 0.344116)"/>
</clipPath>
</defs>
</svg>
