<svg width="24" height="25" viewBox="0 0 24 25" fill="none" xmlns="http://www.w3.org/2000/svg">
<g clip-path="url(#clip0_215_13657)">
<path d="M21 24.1892H19V19.1462C18.9992 18.3622 18.6874 17.6105 18.133 17.0562C17.5787 16.5018 16.827 16.19 16.043 16.1892H7.957C7.173 16.19 6.42134 16.5018 5.86696 17.0562C5.31259 17.6105 5.00079 18.3622 5 19.1462V24.1892H3V19.1462C3.00159 17.832 3.52435 16.5721 4.45363 15.6428C5.3829 14.7136 6.64281 14.1908 7.957 14.1892H16.043C17.3572 14.1908 18.6171 14.7136 19.5464 15.6428C20.4756 16.5721 20.9984 17.832 21 19.1462V24.1892Z" fill="#253D4E"/>
<path d="M12 12.1892C10.8133 12.1892 9.65328 11.8373 8.66658 11.178C7.67989 10.5187 6.91085 9.58167 6.45673 8.48531C6.0026 7.38896 5.88378 6.18256 6.11529 5.01867C6.3468 3.85478 6.91825 2.78569 7.75736 1.94657C8.59648 1.10746 9.66558 0.536011 10.8295 0.3045C11.9933 0.0729887 13.1997 0.191809 14.2961 0.645934C15.3925 1.10006 16.3295 1.8691 16.9888 2.85579C17.6481 3.84248 18 5.00252 18 6.18921C17.9984 7.78002 17.3658 9.30522 16.2409 10.4301C15.116 11.555 13.5908 12.1876 12 12.1892ZM12 2.18921C11.2089 2.18921 10.4355 2.42381 9.77772 2.86333C9.11993 3.30286 8.60723 3.92757 8.30448 4.65848C8.00173 5.38938 7.92252 6.19365 8.07686 6.96957C8.2312 7.7455 8.61217 8.45823 9.17158 9.01764C9.73099 9.57705 10.4437 9.95801 11.2196 10.1124C11.9956 10.2667 12.7998 10.1875 13.5307 9.88473C14.2616 9.58198 14.8864 9.06929 15.3259 8.41149C15.7654 7.7537 16 6.98034 16 6.18921C16 5.12835 15.5786 4.11093 14.8284 3.36078C14.0783 2.61064 13.0609 2.18921 12 2.18921Z" fill="#253D4E"/>
</g>
<defs>
<clipPath id="clip0_215_13657">
<rect width="24" height="24" fill="white" transform="translate(0 0.189209)"/>
</clipPath>
</defs>
</svg>
