<svg width="19" height="20" viewBox="0 0 19 20" fill="none" xmlns="http://www.w3.org/2000/svg">
<g clip-path="url(#clip0_90_49)">
<path d="M11.9049 18.5696L2.1003 16.0337C1.54526 15.8901 1.06512 15.55 0.764738 15.0875C0.464359 14.6251 0.36815 14.078 0.497124 13.5656L3.08402 3.56405L11.0092 1.8114L17.0906 7.18686L14.5031 17.191C14.3668 17.701 14.0172 18.1321 13.5305 18.3904C13.0438 18.6487 12.4595 18.7131 11.9049 18.5696ZM4.28936 4.68148L1.89779 13.9279C1.85479 14.0987 1.88686 14.281 1.98699 14.4352C2.08712 14.5893 2.24716 14.7027 2.43218 14.7506L12.2368 17.2865C12.4218 17.3344 12.6168 17.3128 12.7791 17.2266C12.9414 17.1403 13.0579 16.9963 13.1031 16.8261L15.4947 7.57972L10.6295 3.2791L4.28936 4.68148Z" fill="#B6B6B6"/>
<path d="M9.57897 7.3441C10.1591 7.49416 10.7416 7.18236 10.8799 6.64767C11.0182 6.11298 10.66 5.55788 10.0798 5.40782C9.49962 5.25776 8.91718 5.56956 8.77889 6.10425C8.64059 6.63894 8.9988 7.19404 9.57897 7.3441Z" fill="#B6B6B6"/>
</g>
<defs>
<clipPath id="clip0_90_49">
<rect width="14.4676" height="16" fill="white" transform="translate(4.00586) rotate(14.5017)"/>
</clipPath>
</defs>
</svg>
