<svg width="24" height="25" viewBox="0 0 24 25" fill="none" xmlns="http://www.w3.org/2000/svg">
<path d="M21 21.8962H3C2.20435 21.8962 1.44129 21.5802 0.87868 21.0176C0.31607 20.455 0 19.6919 0 18.8962L0 2.48224L6 8.48224L12 2.48224L18 8.48224L24 2.48224V18.8962C24 19.6919 23.6839 20.455 23.1213 21.0176C22.5587 21.5802 21.7956 21.8962 21 21.8962ZM2 7.31024V18.8962C2 19.1615 2.10536 19.4158 2.29289 19.6033C2.48043 19.7909 2.73478 19.8962 3 19.8962H21C21.2652 19.8962 21.5196 19.7909 21.7071 19.6033C21.8946 19.4158 22 19.1615 22 18.8962V7.31024L18 11.3102L12 5.31024L6 11.3102L2 7.31024Z" fill="#253D4E"/>
</svg>
