<svg width="24" height="25" viewBox="0 0 24 25" fill="none" xmlns="http://www.w3.org/2000/svg">
<g clip-path="url(#clip0_215_13667)">
<path d="M23.2589 16.3892L20.6589 7.0182C20.1037 5.01362 18.894 3.25234 17.2222 2.01469C15.5504 0.77703 13.5127 0.134122 11.4334 0.188282C9.35404 0.242441 7.35257 0.990557 5.7475 2.31356C4.14243 3.63657 3.02601 5.45843 2.57592 7.4892L0.564915 16.5392C0.467608 16.9776 0.469982 17.4323 0.571861 17.8697C0.67374 18.3071 0.872525 18.7161 1.15355 19.0664C1.43457 19.4167 1.79067 19.6995 2.19556 19.8938C2.60045 20.0881 3.04381 20.1891 3.49292 20.1892H7.09992C7.32943 21.3195 7.94265 22.3357 8.83566 23.0656C9.72867 23.7955 10.8466 24.1942 11.9999 24.1942C13.1533 24.1942 14.2712 23.7955 15.1642 23.0656C16.0572 22.3357 16.6704 21.3195 16.8999 20.1892H20.3699C20.832 20.189 21.2878 20.082 21.7018 19.8767C22.1158 19.6713 22.4767 19.3731 22.7564 19.0052C23.0362 18.6374 23.2271 18.21 23.3145 17.7562C23.4018 17.3024 23.3831 16.8346 23.2599 16.3892H23.2589ZM11.9999 22.1892C11.3817 22.1866 10.7793 21.9931 10.2752 21.6351C9.77115 21.2771 9.39 20.7721 9.18392 20.1892H14.8159C14.6098 20.7721 14.2287 21.2771 13.7246 21.6351C13.2205 21.9931 12.6182 22.1866 11.9999 22.1892ZM21.1649 17.7942C21.0716 17.9179 20.9507 18.018 20.8118 18.0866C20.6729 18.1552 20.5198 18.1903 20.3649 18.1892H3.49292C3.34318 18.1892 3.19536 18.1555 3.06036 18.0907C2.92537 18.0259 2.80665 17.9316 2.71297 17.8148C2.61929 17.698 2.55304 17.5617 2.5191 17.4158C2.48517 17.27 2.48442 17.1184 2.51692 16.9722L4.52792 7.9222C4.88227 6.3284 5.75922 4.8988 7.01937 3.86065C8.27952 2.82249 9.85054 2.23537 11.4827 2.19261C13.1148 2.14985 14.7144 2.65391 16.0272 3.62467C17.34 4.59542 18.2906 5.97714 18.7279 7.5502L21.3279 16.9212C21.3704 17.0694 21.3777 17.2254 21.3494 17.3769C21.3212 17.5285 21.258 17.6713 21.1649 17.7942Z" fill="#253D4E"/>
</g>
<defs>
<clipPath id="clip0_215_13667">
<rect width="24" height="24" fill="white" transform="translate(0 0.189209)"/>
</clipPath>
</defs>
</svg>
