<svg width="24" height="25" viewBox="0 0 24 25" fill="none" xmlns="http://www.w3.org/2000/svg">
<g clip-path="url(#clip0_215_13678)">
<path d="M17.5 1.1062C16.3739 1.12372 15.2724 1.43805 14.3067 2.01747C13.341 2.59689 12.5453 3.42087 12 4.4062C11.4546 3.42087 10.6589 2.59689 9.6932 2.01747C8.7275 1.43805 7.62601 1.12372 6.49996 1.1062C4.7049 1.18419 3.01366 1.96946 1.79574 3.29043C0.577818 4.61141 -0.0677922 6.36073 -4.17093e-05 8.1562C-4.17093e-05 14.9312 10.956 22.7562 11.422 23.0882L12 23.4972L12.578 23.0882C13.044 22.7582 24 14.9312 24 8.1562C24.0677 6.36073 23.4221 4.61141 22.2042 3.29043C20.9863 1.96946 19.295 1.18419 17.5 1.1062ZM12 21.0352C8.74696 18.6052 1.99996 12.6352 1.99996 8.1562C1.9316 6.89092 2.36632 5.64993 3.20932 4.7039C4.05232 3.75787 5.23519 3.18355 6.49996 3.1062C7.76472 3.18355 8.9476 3.75787 9.7906 4.7039C10.6336 5.64993 11.0683 6.89092 11 8.1562H13C12.9316 6.89092 13.3663 5.64993 14.2093 4.7039C15.0523 3.75787 16.2352 3.18355 17.5 3.1062C18.7647 3.18355 19.9476 3.75787 20.7906 4.7039C21.6336 5.64993 22.0683 6.89092 22 8.1562C22 12.6372 15.253 18.6052 12 21.0352Z" fill="#253D4E"/>
</g>
<defs>
<clipPath id="clip0_215_13678">
<rect width="24" height="24" fill="white" transform="translate(0 0.189209)"/>
</clipPath>
</defs>
</svg>
