<svg width="24" height="25" viewBox="0 0 24 25" fill="none" xmlns="http://www.w3.org/2000/svg">
<g clip-path="url(#clip0_215_13682)">
<path d="M19 8.18921V7.18921C19 5.33269 18.2625 3.55222 16.9497 2.23946C15.637 0.926707 13.8565 0.189209 12 0.189209C10.1435 0.189209 8.36301 0.926707 7.05025 2.23946C5.7375 3.55222 5 5.33269 5 7.18921V8.18921H2V21.1892C2 21.9849 2.31607 22.7479 2.87868 23.3105C3.44129 23.8731 4.20435 24.1892 5 24.1892H19C19.7956 24.1892 20.5587 23.8731 21.1213 23.3105C21.6839 22.7479 22 21.9849 22 21.1892V8.18921H19ZM7 7.18921C7 5.86313 7.52678 4.59136 8.46447 3.65368C9.40215 2.71599 10.6739 2.18921 12 2.18921C13.3261 2.18921 14.5979 2.71599 15.5355 3.65368C16.4732 4.59136 17 5.86313 17 7.18921V8.18921H7V7.18921ZM20 21.1892C20 21.4544 19.8946 21.7088 19.7071 21.8963C19.5196 22.0839 19.2652 22.1892 19 22.1892H5C4.73478 22.1892 4.48043 22.0839 4.29289 21.8963C4.10536 21.7088 4 21.4544 4 21.1892V10.1892H20V21.1892Z" fill="#253D4E"/>
<path d="M13 14.1892H11V18.1892H13V14.1892Z" fill="#253D4E"/>
</g>
<defs>
<clipPath id="clip0_215_13682">
<rect width="24" height="24" fill="white" transform="translate(0 0.189209)"/>
</clipPath>
</defs>
</svg>
