<svg width="20" height="21" viewBox="0 0 20 21" fill="none" xmlns="http://www.w3.org/2000/svg">
<g clip-path="url(#clip0_215_13742)">
<path d="M9.95675 20.1967L9.66175 20.0659C9.33342 19.9217 1.66675 16.4592 1.66675 10.1892V4.75255C1.66704 4.22936 1.8324 3.7196 2.13928 3.29586C2.44616 2.87212 2.87892 2.55601 3.37591 2.39255L10.0001 0.196716L16.6242 2.39255C17.1212 2.55601 17.554 2.87212 17.8609 3.29586C18.1678 3.7196 18.3331 4.22936 18.3334 4.75255V10.1892C18.3334 17.3367 10.5934 19.985 10.2634 20.095L9.95675 20.1967ZM10.0001 1.94422L3.90341 3.96588C3.73754 4.02006 3.59306 4.12535 3.49067 4.26665C3.38828 4.40796 3.33323 4.57805 3.33341 4.75255V10.1892C3.33341 14.7675 8.70008 17.7375 10.0392 18.4067C11.3759 17.8692 16.6667 15.4084 16.6667 10.1892V4.75255C16.6669 4.57805 16.6119 4.40796 16.5095 4.26665C16.4071 4.12535 16.2626 4.02006 16.0967 3.96588L10.0001 1.94422Z" fill="#2B3D34"/>
<path d="M9.25921 12.3076H9.23171C9.02078 12.3043 8.81271 12.2584 8.62006 12.1724C8.42741 12.0865 8.25419 11.9624 8.11088 11.8076L6.18921 9.80756L7.39004 8.65589L9.26004 10.6059L13.5775 6.28839L14.7559 7.46672L10.3717 11.8509C10.2257 11.9968 10.0522 12.1123 9.86121 12.1907C9.67024 12.2691 9.46563 12.3088 9.25921 12.3076Z" fill="#2B3D34"/>
</g>
<defs>
<clipPath id="clip0_215_13742">
<rect width="20" height="20" fill="white" transform="translate(0 0.189209)"/>
</clipPath>
</defs>
</svg>
