<svg width="24" height="25" viewBox="0 0 24 25" fill="none" xmlns="http://www.w3.org/2000/svg">
<g clip-path="url(#clip0_215_13686)">
<path d="M11.9999 24.1972L11.2999 23.5972C10.3349 22.7892 1.90894 15.5122 1.90894 10.1892C1.90894 7.51291 2.97209 4.94622 4.86452 3.05379C6.75695 1.16136 9.32364 0.0982056 11.9999 0.0982056C14.6762 0.0982056 17.2429 1.16136 19.1353 3.05379C21.0278 4.94622 22.0909 7.51291 22.0909 10.1892C22.0909 15.5122 13.6649 22.7892 12.7039 23.6012L11.9999 24.1972ZM11.9999 2.28021C9.90307 2.28259 7.89277 3.11662 6.41006 4.59933C4.92735 6.08204 4.09332 8.09234 4.09094 10.1892C4.09094 13.5332 9.27494 18.8752 11.9999 21.3202C14.7249 18.8742 19.9089 13.5292 19.9089 10.1892C19.9066 8.09234 19.0725 6.08204 17.5898 4.59933C16.1071 3.11662 14.0968 2.28259 11.9999 2.28021Z" fill="#253D4E"/>
<path d="M12 14.1892C11.2089 14.1892 10.4355 13.9546 9.77772 13.5151C9.11993 13.0756 8.60723 12.4508 8.30448 11.7199C8.00173 10.989 7.92252 10.1848 8.07686 9.40885C8.2312 8.63293 8.61216 7.92019 9.17157 7.36078C9.73098 6.80137 10.4437 6.42041 11.2196 6.26607C11.9956 6.11173 12.7998 6.19094 13.5307 6.49369C14.2616 6.79644 14.8864 7.30913 15.3259 7.96693C15.7654 8.62473 16 9.39809 16 10.1892C16 11.2501 15.5786 12.2675 14.8284 13.0176C14.0783 13.7678 13.0609 14.1892 12 14.1892ZM12 8.18921C11.6044 8.18921 11.2178 8.30651 10.8889 8.52627C10.56 8.74603 10.3036 9.05839 10.1522 9.42384C10.0009 9.7893 9.96126 10.1914 10.0384 10.5794C10.1156 10.9674 10.3061 11.3237 10.5858 11.6034C10.8655 11.8831 11.2219 12.0736 11.6098 12.1508C11.9978 12.228 12.3999 12.1883 12.7654 12.037C13.1308 11.8856 13.4432 11.6292 13.6629 11.3004C13.8827 10.9715 14 10.5848 14 10.1892C14 9.65878 13.7893 9.15007 13.4142 8.775C13.0391 8.39992 12.5304 8.18921 12 8.18921Z" fill="#253D4E"/>
</g>
<defs>
<clipPath id="clip0_215_13686">
<rect width="24" height="24" fill="white" transform="translate(0 0.189209)"/>
</clipPath>
</defs>
</svg>
