<svg width="24" height="25" viewBox="0 0 24 25" fill="none" xmlns="http://www.w3.org/2000/svg">
<path d="M21 12.6132V11.1892C21 8.80226 20.0517 6.51308 18.3639 4.82525C16.6761 3.13742 14.3869 2.18921 12 2.18921C9.613 2.18921 7.32382 3.13742 5.63599 4.82525C3.94816 6.51308 2.99995 8.80226 2.99995 11.1892V12.6132C1.95111 13.075 1.09275 13.8832 0.568572 14.9023C0.0443932 15.9214 -0.113788 17.0896 0.120508 18.2115C0.354805 19.3333 0.967358 20.3405 1.85562 21.0647C2.74388 21.7888 3.85394 22.1858 4.99995 22.1892H6.99995V12.1892H4.99995V11.1892C4.99995 9.33269 5.73745 7.55222 7.0502 6.23946C8.36296 4.92671 10.1434 4.18921 12 4.18921C13.8565 4.18921 15.6369 4.92671 16.9497 6.23946C18.2625 7.55222 19 9.33269 19 11.1892V12.1892H17V20.1892H13V22.1892H19C20.146 22.1858 21.256 21.7888 22.1443 21.0647C23.0325 20.3405 23.6451 19.3333 23.8794 18.2115C24.1137 17.0896 23.9555 15.9214 23.4313 14.9023C22.9071 13.8832 22.0488 13.075 21 12.6132ZM4.99995 20.1892C4.2043 20.1892 3.44124 19.8731 2.87863 19.3105C2.31602 18.7479 1.99995 17.9849 1.99995 17.1892C1.99995 16.3936 2.31602 15.6305 2.87863 15.0679C3.44124 14.5053 4.2043 14.1892 4.99995 14.1892V20.1892ZM19 20.1892V14.1892C19.7956 14.1892 20.5587 14.5053 21.1213 15.0679C21.6839 15.6305 22 16.3936 22 17.1892C22 17.9849 21.6839 18.7479 21.1213 19.3105C20.5587 19.8731 19.7956 20.1892 19 20.1892Z" fill="#253D4E"/>
</svg>
