<svg width="24" height="25" viewBox="0 0 24 25" fill="none" xmlns="http://www.w3.org/2000/svg">
<g clip-path="url(#clip0_215_13661)">
<path d="M11 11.1892H0V3.18921C0 2.39356 0.31607 1.6305 0.87868 1.06789C1.44129 0.505279 2.20435 0.189209 3 0.189209L11 0.189209V11.1892ZM2 9.18921H9V2.18921H3C2.73478 2.18921 2.48043 2.29457 2.29289 2.4821C2.10536 2.66964 2 2.92399 2 3.18921V9.18921Z" fill="#FFF"/>
<path d="M24 11.1892H13V0.189209H21C21.7956 0.189209 22.5587 0.505279 23.1213 1.06789C23.6839 1.6305 24 2.39356 24 3.18921V11.1892ZM15 9.18921H22V3.18921C22 2.92399 21.8946 2.66964 21.7071 2.4821C21.5196 2.29457 21.2652 2.18921 21 2.18921H15V9.18921Z" fill="#FFF"/>
<path d="M11 24.1892H3C2.20435 24.1892 1.44129 23.8731 0.87868 23.3105C0.31607 22.7479 0 21.9849 0 21.1892L0 13.1892H11V24.1892ZM2 15.1892V21.1892C2 21.4544 2.10536 21.7088 2.29289 21.8963C2.48043 22.0839 2.73478 22.1892 3 22.1892H9V15.1892H2Z" fill="#FFF"/>
<path d="M21 24.1892H13V13.1892H24V21.1892C24 21.9849 23.6839 22.7479 23.1213 23.3105C22.5587 23.8731 21.7956 24.1892 21 24.1892ZM15 22.1892H21C21.2652 22.1892 21.5196 22.0839 21.7071 21.8963C21.8946 21.7088 22 21.4544 22 21.1892V15.1892H15V22.1892Z" fill="#FFF"/>
</g>
<defs>
<clipPath id="clip0_215_13661">
<rect width="24" height="24" fill="white" transform="translate(0 0.189209)"/>
</clipPath>
</defs>
</svg>
