<svg width="24" height="25" viewBox="0 0 24 25" fill="none" xmlns="http://www.w3.org/2000/svg">
<path d="M22.922 1.88921C22.5852 1.60694 22.1903 1.4025 21.7654 1.29049C21.3405 1.17847 20.8961 1.16165 20.464 1.24121L14.284 2.36421C13.3997 2.52366 12.5949 2.97676 12 3.65021C11.4055 2.97565 10.6007 2.52147 9.716 2.36121L3.536 1.23821C3.10377 1.15972 2.65957 1.17712 2.2348 1.28917C1.81004 1.40122 1.41506 1.60519 1.07778 1.88667C0.740505 2.16814 0.469162 2.52026 0.282926 2.91813C0.0966906 3.316 0.000106745 3.74991 0 4.18921L0 21.0232L12 23.2062L24 21.0232V4.18921C24 3.75023 23.9035 3.31662 23.7172 2.91914C23.5309 2.52165 23.2594 2.17003 22.922 1.88921ZM11 20.9892L2 19.3552V4.18921C2.00012 4.0428 2.0324 3.8982 2.09454 3.76564C2.15668 3.63307 2.24717 3.51576 2.35962 3.422C2.47208 3.32824 2.60374 3.26032 2.74533 3.22303C2.88691 3.18575 3.03495 3.18 3.179 3.20621L9.358 4.32921C9.81882 4.41305 10.2356 4.65597 10.5357 5.01562C10.8357 5.37527 11.0001 5.82882 11 6.29721V20.9892ZM22 19.3532L13 20.9892V6.29721C12.9999 5.82882 13.1643 5.37527 13.4643 5.01562C13.7644 4.65597 14.1812 4.41305 14.642 4.32921L20.821 3.20621C20.965 3.18 21.1131 3.18575 21.2547 3.22303C21.3963 3.26032 21.5279 3.32824 21.6404 3.422C21.7528 3.51576 21.8433 3.63307 21.9055 3.76564C21.9676 3.8982 21.9999 4.0428 22 4.18921V19.3532Z" fill="#253D4E"/>
</svg>
