<svg width="24" height="25" viewBox="0 0 24 25" fill="none" xmlns="http://www.w3.org/2000/svg">
<g clip-path="url(#clip0_215_13696)">
<path d="M24 22.7752L17.738 16.5132C19.3646 14.5238 20.1644 11.9853 19.9719 9.4228C19.7793 6.86027 18.6092 4.46977 16.7036 2.74576C14.798 1.02175 12.3026 0.0961273 9.73367 0.160359C7.16472 0.224591 4.71873 1.27376 2.90164 3.09085C1.08455 4.90794 0.035382 7.35393 -0.0288498 9.92288C-0.0930816 12.4918 0.832537 14.9872 2.55655 16.8928C4.28056 18.7984 6.67106 19.9685 9.23359 20.1611C11.7961 20.3536 14.3346 19.5539 16.324 17.9272L22.586 24.1892L24 22.7752ZM10 18.1892C8.41778 18.1892 6.87106 17.72 5.55546 16.841C4.23987 15.9619 3.21449 14.7125 2.60899 13.2507C2.00349 11.7889 1.84506 10.1804 2.15374 8.62851C2.46243 7.07666 3.22435 5.6512 4.34317 4.53238C5.46199 3.41356 6.88746 2.65163 8.4393 2.34295C9.99115 2.03427 11.5997 2.1927 13.0615 2.7982C14.5233 3.4037 15.7727 4.42908 16.6518 5.74467C17.5308 7.06027 18 8.60698 18 10.1892C17.9976 12.3102 17.154 14.3437 15.6542 15.8435C14.1545 17.3432 12.121 18.1869 10 18.1892Z" fill="#253D4E"/>
</g>
<defs>
<clipPath id="clip0_215_13696">
<rect width="24" height="24" fill="white" transform="translate(0 0.189209)"/>
</clipPath>
</defs>
</svg>
