<svg width="24" height="25" viewBox="0 0 24 25" fill="none" xmlns="http://www.w3.org/2000/svg">
<g clip-path="url(#clip0_215_13693)">
<path d="M19.765 9.64719L4.97998 0.208191V24.2082L19.759 14.7352C20.1892 14.4648 20.5438 14.0898 20.7899 13.6452C21.0359 13.2006 21.1652 12.701 21.1658 12.1928C21.1664 11.6847 21.0383 11.1848 20.7933 10.7396C20.5483 10.2944 20.1945 9.91859 19.765 9.64719ZM18.685 13.0422L6.98498 20.5422V3.86619L18.692 11.3402C18.8363 11.4305 18.9552 11.5561 19.0374 11.7052C19.1196 11.8543 19.1624 12.0219 19.1617 12.1921C19.161 12.3624 19.1168 12.5296 19.0334 12.678C18.95 12.8265 18.8301 12.9511 18.685 13.0402V13.0422Z" fill="#253D4E"/>
</g>
<defs>
<clipPath id="clip0_215_13693">
<rect width="24" height="24" fill="white" transform="translate(0 0.189209)"/>
</clipPath>
</defs>
</svg>
