<svg width="24" height="25" viewBox="0 0 24 25" fill="none" xmlns="http://www.w3.org/2000/svg">
<g clip-path="url(#clip0_215_13655)">
<path d="M10 24.1892H0V22.1892H10V24.1892ZM8 18.1892H0V20.1892H8V18.1892ZM6 14.1892H0V16.1892H6V14.1892ZM12 0.189209C8.81846 0.19265 5.76821 1.45804 3.51852 3.70773C1.26883 5.95742 0.00344108 9.00767 0 12.1892H2C2 10.2114 2.58649 8.278 3.6853 6.63351C4.78412 4.98902 6.3459 3.70729 8.17317 2.95041C10.0004 2.19354 12.0111 1.9955 13.9509 2.38136C15.8907 2.76721 17.6725 3.71962 19.0711 5.11814C20.4696 6.51667 21.422 8.2985 21.8079 10.2383C22.1937 12.1781 21.9957 14.1888 21.2388 16.016C20.4819 17.8433 19.2002 19.4051 17.5557 20.5039C15.9112 21.6027 13.9778 22.1892 12 22.1892V24.1892C15.1826 24.1892 18.2348 22.9249 20.4853 20.6745C22.7357 18.4241 24 15.3718 24 12.1892C24 9.00661 22.7357 5.95436 20.4853 3.70393C18.2348 1.45349 15.1826 0.189209 12 0.189209V0.189209ZM11 7.18921V12.6032L14.293 15.8962L15.707 14.4822L13 11.7752V7.18921H11Z" fill="#253D4E"/>
</g>
<defs>
<clipPath id="clip0_215_13655">
<rect width="24" height="24" fill="white" transform="translate(0 0.189209)"/>
</clipPath>
</defs>
</svg>
