<svg width="15" height="15" viewBox="0 0 15 15" fill="none" xmlns="http://www.w3.org/2000/svg">
<g clip-path="url(#clip0_96_4524)">
<path d="M12.6871 7.94617L11.8623 8.771L13.1993 10.1086H12.9765C11.0025 10.1086 9.74714 9.21492 8.63297 8.06225L8.45797 8.26525C8.26664 8.48692 8.06947 8.715 7.86414 8.94425C8.49833 9.67858 9.28367 10.2672 10.1664 10.67C11.0492 11.0727 12.0085 11.28 12.9788 11.2776H13.1993L11.8617 12.6152L12.6866 13.44L14.6075 11.5191C14.8262 11.3003 14.9491 11.0036 14.9491 10.6942C14.9491 10.3849 14.8262 10.0882 14.6075 9.86942L12.6871 7.94617Z" fill="#3BB77E"/>
<path d="M12.9771 4.27525H13.1994L11.8624 5.61283L12.6872 6.43767L14.6081 4.51675C14.8268 4.29797 14.9497 4.00128 14.9497 3.69192C14.9497 3.38256 14.8268 3.08587 14.6081 2.86708L12.6872 0.946167L11.8624 1.771L13.1994 3.10858H12.9765C10.0849 3.10858 8.50411 4.66608 7.06969 6.30408C5.65277 4.704 3.94944 3.10858 0.926025 3.10858V4.27525C3.53003 4.27525 4.93528 5.63792 6.29794 7.19192C4.93528 8.74592 3.53003 10.1086 0.926025 10.1086V11.2753C4.31403 11.2753 6.04536 9.27092 7.57603 7.50342C9.00752 5.84325 10.3626 4.27525 12.9771 4.27525Z" fill="#3BB77E"/>
</g>
<defs>
<clipPath id="clip0_96_4524">
<rect width="14" height="14" fill="white" transform="translate(0.949341 0.191895)"/>
</clipPath>
</defs>
</svg>
