<svg width="20" height="21" viewBox="0 0 20 21" fill="none" xmlns="http://www.w3.org/2000/svg">
<g clip-path="url(#clip0_215_13738)">
<path d="M4.5835 14.356C5.27385 14.356 5.8335 13.7963 5.8335 13.106C5.8335 12.4156 5.27385 11.856 4.5835 11.856C3.89314 11.856 3.3335 12.4156 3.3335 13.106C3.3335 13.7963 3.89314 14.356 4.5835 14.356Z" fill="#1C4037"/>
<path d="M17.5 2.68921H2.5C1.83696 2.68921 1.20107 2.9526 0.732233 3.42144C0.263392 3.89028 0 4.52617 0 5.18921L0 17.6892H20V5.18921C20 4.52617 19.7366 3.89028 19.2678 3.42144C18.7989 2.9526 18.163 2.68921 17.5 2.68921ZM2.5 4.35588H17.5C17.721 4.35588 17.933 4.44367 18.0893 4.59995C18.2455 4.75623 18.3333 4.9682 18.3333 5.18921V6.85588H1.66667V5.18921C1.66667 4.9682 1.75446 4.75623 1.91074 4.59995C2.06702 4.44367 2.27899 4.35588 2.5 4.35588ZM1.66667 16.0225V8.52254H18.3333V16.0225H1.66667Z" fill="#253D4E"/>
</g>
<defs>
<clipPath id="clip0_215_13738">
<rect width="20" height="20" fill="white" transform="translate(0 0.189209)"/>
</clipPath>
</defs>
</svg>
