<svg width="16" height="17" viewBox="0 0 16 17" fill="none" xmlns="http://www.w3.org/2000/svg">
<g id="fi-rs-trash 1" clip-path="url(#clip0_86_4472)">
<g id="01 align center">
<path id="Vector" d="M14.6673 3.39958H11.334V2.06624C11.334 1.71262 11.1935 1.37348 10.9435 1.12343C10.6934 0.873386 10.3543 0.73291 10.0007 0.73291H6.00065C5.64703 0.73291 5.30789 0.873386 5.05784 1.12343C4.80779 1.37348 4.66732 1.71262 4.66732 2.06624V3.39958H1.33398V4.73291H2.66732V14.7329C2.66732 15.2633 2.87803 15.7721 3.2531 16.1471C3.62818 16.5222 4.13688 16.7329 4.66732 16.7329H11.334C11.8644 16.7329 12.3731 16.5222 12.7482 16.1471C13.1233 15.7721 13.334 15.2633 13.334 14.7329V4.73291H14.6673V3.39958ZM6.00065 2.06624H10.0007V3.39958H6.00065V2.06624ZM12.0007 14.7329C12.0007 14.9097 11.9304 15.0793 11.8054 15.2043C11.6804 15.3293 11.5108 15.3996 11.334 15.3996H4.66732C4.49051 15.3996 4.32094 15.3293 4.19591 15.2043C4.07089 15.0793 4.00065 14.9097 4.00065 14.7329V4.73291H12.0007V14.7329Z" fill="#B6B6B6"/>
<path id="Vector_2" d="M7.33333 7.3996H6V12.7329H7.33333V7.3996Z" fill="#B6B6B6"/>
<path id="Vector_3" d="M10.0013 7.3996H8.66797V12.7329H10.0013V7.3996Z" fill="#B6B6B6"/>
</g>
</g>
<defs>
<clipPath id="clip0_86_4472">
<rect width="16" height="16" fill="white" transform="translate(0 0.73291)"/>
</clipPath>
</defs>
</svg>
