<svg width="24" height="25" viewBox="0 0 24 25" fill="none" xmlns="http://www.w3.org/2000/svg">
<g clip-path="url(#clip0_215_13708)">
<path d="M16.3999 4.26119C15.1999 3.24419 13.9639 2.18919 12.7129 0.942192L11.9999 0.234192L11.2999 0.943192C9.0479 3.20119 7.9839 6.66819 7.5219 8.74819C7.16827 8.2001 6.90587 7.59829 6.7449 6.96619L6.3219 5.33319L5.0919 6.48919C2.9369 8.51219 1.4999 10.5192 1.4999 13.7332C1.47978 16.0514 2.23482 18.31 3.64512 20.15C5.05541 21.9901 7.04008 23.3061 9.2839 23.8892C9.95997 24.0536 10.65 24.1541 11.3449 24.1892C11.5622 24.2167 11.7809 24.231 11.9999 24.2322C12.1149 24.2322 12.2269 24.2222 12.3389 24.2152C15.063 24.1332 17.648 22.9929 19.5451 21.0362C21.4423 19.0795 22.5022 16.4606 22.4999 13.7352C22.4999 9.44119 19.6729 7.04119 16.3999 4.26119ZM12.1999 22.2152C12.0999 22.2152 11.9999 22.2252 11.8939 22.2242C10.9938 22.1967 10.1397 21.8204 9.51196 21.1747C8.88423 20.5291 8.53208 19.6647 8.5299 18.7642C8.5299 17.4962 9.2099 16.8642 10.7489 15.5542C11.1369 15.2242 11.5589 14.8652 12.0029 14.4542C12.3919 14.8072 12.7699 15.1272 13.1189 15.4242C14.6649 16.7362 15.4719 17.4812 15.4719 18.7612C15.4702 19.6457 15.1304 20.4961 14.5221 21.1383C13.9138 21.7804 13.083 22.1657 12.1999 22.2152ZM17.2199 20.4442L17.1999 20.4582C17.3794 19.9114 17.4712 19.3397 17.4719 18.7642C17.4719 16.4992 15.9859 15.2372 14.4139 13.9022C13.8569 13.4302 13.2819 12.9422 12.7079 12.3682L11.9999 11.6612L11.2929 12.3682C10.6449 13.0152 10.0109 13.5552 9.4519 14.0312C7.8839 15.3652 6.5289 16.5182 6.5289 18.7642C6.53104 19.3644 6.6324 19.9601 6.8289 20.5272C5.78796 19.7279 4.94587 18.6988 4.36839 17.5202C3.79092 16.3417 3.49368 15.0456 3.4999 13.7332C3.48345 11.9784 4.16264 10.2885 5.3889 9.03319C5.60013 9.46171 5.85053 9.86979 6.1369 10.2522C6.34607 10.5344 6.63324 10.7493 6.96304 10.8703C7.29284 10.9913 7.65084 11.0132 7.9929 10.9332C8.34089 10.8557 8.6592 10.6797 8.90978 10.4261C9.16036 10.1725 9.3326 9.85208 9.4059 9.50319C9.82462 7.20484 10.7302 5.02267 12.0619 3.10319C13.1169 4.10319 14.1619 4.98819 15.1049 5.78919C18.2369 8.44919 20.5049 10.3712 20.5049 13.7392C20.5074 15.0338 20.2123 16.3117 19.6426 17.4743C19.0728 18.6368 18.2436 19.6529 17.2189 20.4442H17.2199Z" fill="#3BB77E"/>
</g>
<defs>
<clipPath id="clip0_215_13708">
<rect width="24" height="24" fill="white" transform="translate(0 0.189209)"/>
</clipPath>
</defs>
</svg>
