<svg width="15" height="15" viewBox="0 0 15 15" fill="none" xmlns="http://www.w3.org/2000/svg">
<g clip-path="url(#clip0_96_4521)">
<path d="M11.1577 0.726807C10.5008 0.737024 9.85829 0.920388 9.29497 1.25838C8.73165 1.59638 8.26748 2.07703 7.94936 2.65181C7.63123 2.07703 7.16707 1.59638 6.60375 1.25838C6.04042 0.920388 5.39789 0.737024 4.74102 0.726807C3.69391 0.772301 2.70735 1.23037 1.9969 2.00094C1.28644 2.77151 0.909836 3.79195 0.949357 4.83931C0.949357 8.79139 7.34036 13.356 7.61219 13.5496L7.94936 13.7882L8.28652 13.5496C8.55836 13.3571 14.9494 8.79139 14.9494 4.83931C14.9889 3.79195 14.6123 2.77151 13.9018 2.00094C13.1914 1.23037 12.2048 0.772301 11.1577 0.726807ZM7.94936 12.3521C6.05177 10.9346 2.11602 7.45206 2.11602 4.83931C2.07615 4.10122 2.32974 3.37732 2.82149 2.82546C3.31323 2.27361 4.00324 1.93859 4.74102 1.89347C5.4788 1.93859 6.16881 2.27361 6.66056 2.82546C7.15231 3.37732 7.4059 4.10122 7.36602 4.83931H8.53269C8.49281 4.10122 8.7464 3.37732 9.23815 2.82546C9.7299 2.27361 10.4199 1.93859 11.1577 1.89347C11.8955 1.93859 12.5855 2.27361 13.0772 2.82546C13.569 3.37732 13.8226 4.10122 13.7827 4.83931C13.7827 7.45322 9.84694 10.9346 7.94936 12.3521Z" fill="#3BB77E"/>
</g>
<defs>
<clipPath id="clip0_96_4521">
<rect width="14" height="14" fill="white" transform="translate(0.949341 0.191895)"/>
</clipPath>
</defs>
</svg>
