<svg width="24" height="25" viewBox="0 0 24 25" fill="none" xmlns="http://www.w3.org/2000/svg">
<g clip-path="url(#clip0_215_13702)">
<path d="M13.338 1.0222C12.9707 0.691639 12.4941 0.508728 12 0.508728C11.5059 0.508728 11.0293 0.691639 10.662 1.0222L0 10.6182V21.0182C0 21.8669 0.337142 22.6808 0.937258 23.2809C1.53737 23.8811 2.35131 24.2182 3.2 24.2182H20.8C21.6487 24.2182 22.4626 23.8811 23.0627 23.2809C23.6629 22.6808 24 21.8669 24 21.0182V10.6182L13.338 1.0222ZM15 22.2152H9V17.1892C9 16.3936 9.31607 15.6305 9.87868 15.0679C10.4413 14.5053 11.2044 14.1892 12 14.1892C12.7956 14.1892 13.5587 14.5053 14.1213 15.0679C14.6839 15.6305 15 16.3936 15 17.1892V22.2152ZM22 21.0152C22 21.3335 21.8736 21.6387 21.6485 21.8637C21.4235 22.0888 21.1183 22.2152 20.8 22.2152H17V17.1892C17 15.8631 16.4732 14.5914 15.5355 13.6537C14.5979 12.716 13.3261 12.1892 12 12.1892C10.6739 12.1892 9.40215 12.716 8.46447 13.6537C7.52678 14.5914 7 15.8631 7 17.1892V22.2152H3.2C2.88174 22.2152 2.57652 22.0888 2.35147 21.8637C2.12643 21.6387 2 21.3335 2 21.0152V11.5082L12 2.5082L22 11.5082V21.0152Z" fill="#253D4E"/>
</g>
<defs>
<clipPath id="clip0_215_13702">
<rect width="24" height="24" fill="white" transform="translate(0 0.189209)"/>
</clipPath>
</defs>
</svg>
