<svg width="24" height="25" viewBox="0 0 24 25" fill="none" xmlns="http://www.w3.org/2000/svg">
<g clip-path="url(#clip0_215_13699)">
<path d="M18 6.18921C18 4.59791 17.3679 3.07179 16.2426 1.94657C15.1174 0.82135 13.5913 0.189209 12 0.189209C10.4087 0.189209 8.88258 0.82135 7.75736 1.94657C6.63214 3.07179 6 4.59791 6 6.18921H0V21.1892C0 21.9849 0.31607 22.7479 0.87868 23.3105C1.44129 23.8731 2.20435 24.1892 3 24.1892H21C21.7956 24.1892 22.5587 23.8731 23.1213 23.3105C23.6839 22.7479 24 21.9849 24 21.1892V6.18921H18ZM12 2.18921C13.0609 2.18921 14.0783 2.61064 14.8284 3.36078C15.5786 4.11093 16 5.12834 16 6.18921H8C8 5.12834 8.42143 4.11093 9.17157 3.36078C9.92172 2.61064 10.9391 2.18921 12 2.18921ZM22 21.1892C22 21.4544 21.8946 21.7088 21.7071 21.8963C21.5196 22.0839 21.2652 22.1892 21 22.1892H3C2.73478 22.1892 2.48043 22.0839 2.29289 21.8963C2.10536 21.7088 2 21.4544 2 21.1892V8.18921H6V10.1892H8V8.18921H16V10.1892H18V8.18921H22V21.1892Z" fill="#253D4E"/>
</g>
<defs>
<clipPath id="clip0_215_13699">
<rect width="24" height="24" fill="white" transform="translate(0 0.189209)"/>
</clipPath>
</defs>
</svg>
