<svg width="17" height="17" viewBox="0 0 17 17" fill="none" xmlns="http://www.w3.org/2000/svg">
<g id="fi-rs-refresh 1" clip-path="url(#clip0_86_4466)">
<g id="01 align center">
<path id="Vector" d="M8.89454 2.25649C9.77888 2.25939 10.6539 2.43765 11.4689 2.78094C12.2838 3.12424 13.0227 3.62577 13.6425 4.25649H10.8945V5.58982H14.3232C14.6514 5.58947 14.9661 5.45892 15.1982 5.22683C15.4303 4.99474 15.5609 4.68005 15.5612 4.35182V0.923154H14.2279V2.97515C13.0795 1.94106 11.6559 1.26226 10.1295 1.02103C8.60309 0.779795 7.03949 0.986492 5.62822 1.61606C4.21694 2.24563 3.01857 3.27105 2.17837 4.56802C1.33817 5.86498 0.892208 7.37782 0.89454 8.92315H2.22787C2.22981 7.15564 2.93282 5.46107 4.18264 4.21125C5.43246 2.96143 7.12703 2.25843 8.89454 2.25649Z" fill="white"/>
<path id="Vector_2" d="M15.5618 8.92322C15.5638 10.2468 15.1711 11.5409 14.4341 12.6402C13.697 13.7395 12.649 14.5942 11.4238 15.0951C10.1987 15.596 8.85208 15.7203 7.55596 15.4522C6.25984 15.1841 5.07305 14.5357 4.14718 13.5899H6.89518V12.2566H3.46652C3.13829 12.2569 2.8236 12.3874 2.59151 12.6195C2.35941 12.8516 2.22887 13.1663 2.22852 13.4946V16.9232H3.56185V14.8712C4.7102 15.9053 6.13385 16.5841 7.66024 16.8253C9.18663 17.0666 10.7502 16.8599 12.1615 16.2303C13.5728 15.6007 14.7711 14.5753 15.6114 13.2784C16.4516 11.9814 16.8975 10.4686 16.8952 8.92322H15.5618Z" fill="white"/>
</g>
</g>
<defs>
<clipPath id="clip0_86_4466">
<rect width="16" height="16.0001" fill="white" transform="translate(0.894531 0.923218)"/>
</clipPath>
</defs>
</svg>
