<svg width="25" height="25" viewBox="0 0 25 25" fill="none" xmlns="http://www.w3.org/2000/svg">
<g id="fi-rs-sign-out 1" clip-path="url(#clip0_142_5172)">
<g id="01 align center">
<path id="Vector" d="M2.9082 21.109V3.10901C2.9082 2.84379 3.01356 2.58944 3.2011 2.4019C3.38863 2.21437 3.64299 2.10901 3.9082 2.10901H8.9082V0.109009H3.9082C3.11255 0.109009 2.34949 0.425079 1.78688 0.987688C1.22427 1.5503 0.908203 2.31336 0.908203 3.10901L0.908203 21.109C0.908203 21.9047 1.22427 22.6677 1.78688 23.2303C2.34949 23.7929 3.11255 24.109 3.9082 24.109H8.9082V22.109H3.9082C3.64299 22.109 3.38863 22.0037 3.2011 21.8161C3.01356 21.6286 2.9082 21.3742 2.9082 21.109Z" fill="#B6B6B6"/>
<path id="Vector_2" d="M24.0312 9.98804L19.4452 5.40204L18.0312 6.81604L22.2952 11.08L5.9082 11.109V13.109L22.3512 13.08L18.0292 17.402L19.4432 18.816L24.0292 14.23C24.5919 13.6677 24.9082 12.9049 24.9086 12.1095C24.9089 11.314 24.5933 10.5509 24.0312 9.98804Z" fill="#B6B6B6"/>
</g>
</g>
<defs>
<clipPath id="clip0_142_5172">
<rect width="24" height="24" fill="white" transform="translate(0.908203 0.109009)"/>
</clipPath>
</defs>
</svg>
