<svg width="16" height="17" viewBox="0 0 16 17" fill="none" xmlns="http://www.w3.org/2000/svg">
<g clip-path="url(#clip0_96_4012)">
<path d="M8.00028 16.7564L7.53362 16.3564C6.89028 15.8178 1.27295 10.9664 1.27295 7.41776C1.27295 5.63356 1.98172 3.92244 3.24334 2.66082C4.50496 1.3992 6.21608 0.69043 8.00028 0.69043C9.78448 0.69043 11.4956 1.3992 12.7572 2.66082C14.0188 3.92244 14.7276 5.63356 14.7276 7.41776C14.7276 10.9664 9.11028 15.8178 8.46962 16.3591L8.00028 16.7564ZM8.00028 2.1451C6.60237 2.14668 5.26217 2.70271 4.2737 3.69118C3.28523 4.67965 2.7292 6.01985 2.72762 7.41776C2.72762 9.6471 6.18362 13.2084 8.00028 14.8384C9.81695 13.2078 13.2729 9.64443 13.2729 7.41776C13.2714 6.01985 12.7153 4.67965 11.7269 3.69118C10.7384 2.70271 9.39819 2.14668 8.00028 2.1451Z" fill="#3BB77E"/>
<path d="M8.00029 10.0843C7.47287 10.0843 6.9573 9.92791 6.51877 9.6349C6.08023 9.34188 5.73844 8.9254 5.53661 8.43813C5.33477 7.95086 5.28196 7.41469 5.38486 6.8974C5.48775 6.38012 5.74173 5.90497 6.11467 5.53203C6.48761 5.15909 6.96276 4.90511 7.48005 4.80222C7.99733 4.69932 8.53351 4.75213 9.02078 4.95397C9.50805 5.1558 9.92452 5.49759 10.2175 5.93612C10.5106 6.37465 10.667 6.89023 10.667 7.41764C10.667 8.12489 10.386 8.80317 9.8859 9.30326C9.38581 9.80336 8.70753 10.0843 8.00029 10.0843ZM8.00029 6.08431C7.73658 6.08431 7.47879 6.16251 7.25953 6.30902C7.04026 6.45553 6.86936 6.66377 6.76845 6.9074C6.66753 7.15103 6.64113 7.41912 6.69257 7.67776C6.74402 7.93641 6.87101 8.17398 7.05748 8.36045C7.24395 8.54692 7.48152 8.67391 7.74017 8.72536C7.99881 8.77681 8.2669 8.7504 8.51053 8.64948C8.75417 8.54857 8.9624 8.37767 9.10891 8.1584C9.25542 7.93914 9.33362 7.68135 9.33362 7.41764C9.33362 7.06402 9.19314 6.72488 8.9431 6.47484C8.69305 6.22479 8.35391 6.08431 8.00029 6.08431Z" fill="#3BB77E"/>
</g>
<defs>
<clipPath id="clip0_96_4012">
<rect width="16" height="16" fill="white" transform="translate(0.000244141 0.750977)"/>
</clipPath>
</defs>
</svg>
