<svg width="25" height="25" viewBox="0 0 25 25" fill="none" xmlns="http://www.w3.org/2000/svg">
<g id="fi-rs-cross-circle 1" clip-path="url(#clip0_86_4039)">
<g id="01 align center">
<path id="Vector" d="M16.2285 8.09125L12.9355 11.3842L9.64252 8.09125L8.22852 9.50525L11.5215 12.7982L8.22852 16.0912L9.64252 17.5052L12.9355 14.2122L16.2285 17.5052L17.6425 16.0912L14.3495 12.7982L17.6425 9.50525L16.2285 8.09125Z" fill="#B6B6B6"/>
<path id="Vector_2" d="M12.9356 0.798218C10.5622 0.798218 8.2421 1.50201 6.26871 2.82058C4.29532 4.13916 2.75725 6.0133 1.849 8.20602C0.940746 10.3987 0.703106 12.8115 1.16613 15.1393C1.62915 17.4671 2.77204 19.6053 4.45027 21.2835C6.1285 22.9617 8.2667 24.1046 10.5945 24.5676C12.9222 25.0307 15.335 24.793 17.5278 23.8848C19.7205 22.9765 21.5946 21.4385 22.9132 19.4651C24.2318 17.4917 24.9356 15.1716 24.9356 12.7982C24.9321 9.61668 23.6667 6.56643 21.417 4.31674C19.1673 2.06705 16.1171 0.801659 12.9356 0.798218V0.798218ZM12.9356 22.7982C10.9577 22.7982 9.02434 22.2117 7.37985 21.1129C5.73536 20.0141 4.45363 18.4523 3.69676 16.6251C2.93988 14.7978 2.74185 12.7871 3.1277 10.8473C3.51355 8.90751 4.46596 7.12568 5.86448 5.72715C7.26301 4.32862 9.04484 3.37622 10.9846 2.99037C12.9245 2.60451 14.9351 2.80255 16.7624 3.55942C18.5896 4.3163 20.1514 5.59802 21.2502 7.24252C22.3491 8.88701 22.9356 10.8204 22.9356 12.7982C22.9326 15.4495 21.8781 17.9913 20.0034 19.8661C18.1287 21.7408 15.5868 22.7953 12.9356 22.7982Z" fill="#B6B6B6"/>
</g>
</g>
<defs>
<clipPath id="clip0_86_4039">
<rect width="24" height="24" fill="white" transform="translate(0.935547 0.798218)"/>
</clipPath>
</defs>
</svg>
