<svg width="24" height="25" viewBox="0 0 24 25" fill="none" xmlns="http://www.w3.org/2000/svg">
<g clip-path="url(#clip0_215_13650)">
<path d="M24 3.18921H4.242L4.2 2.83821C4.11405 2.10863 3.76338 1.43594 3.21449 0.947687C2.6656 0.459432 1.95663 0.189551 1.222 0.189209L0 0.189209V2.18921H1.222C1.46693 2.18924 1.70334 2.27917 1.88637 2.44192C2.06941 2.60468 2.18634 2.82896 2.215 3.07221L3.8 16.5402C3.88595 17.2698 4.23662 17.9425 4.78551 18.4307C5.3344 18.919 6.04337 19.1889 6.778 19.1892H20V17.1892H6.778C6.53291 17.1891 6.29638 17.0991 6.11333 16.9361C5.93027 16.7732 5.81343 16.5486 5.785 16.3052L5.654 15.1892H21.836L24 3.18921ZM20.164 13.1892H5.419L4.478 5.18921H21.607L20.164 13.1892Z" fill="#253D4E"/>
<path d="M7 24.1892C8.10457 24.1892 9 23.2938 9 22.1892C9 21.0846 8.10457 20.1892 7 20.1892C5.89543 20.1892 5 21.0846 5 22.1892C5 23.2938 5.89543 24.1892 7 24.1892Z" fill="#253D4E"/>
<path d="M17 24.1892C18.1046 24.1892 19 23.2938 19 22.1892C19 21.0846 18.1046 20.1892 17 20.1892C15.8954 20.1892 15 21.0846 15 22.1892C15 23.2938 15.8954 24.1892 17 24.1892Z" fill="#253D4E"/>
</g>
<defs>
<clipPath id="clip0_215_13650">
<rect width="24" height="24" fill="white" transform="translate(0 0.189209)"/>
</clipPath>
</defs>
</svg>
