<svg width="15" height="15" viewBox="0 0 15 15" fill="none" xmlns="http://www.w3.org/2000/svg">
<g clip-path="url(#clip0_96_4528)">
<path d="M14.845 6.71414C14.3328 5.59414 12.3244 1.94189 7.94939 1.94189C3.57439 1.94189 1.56597 5.59414 1.0538 6.71414C0.985052 6.86424 0.949463 7.02739 0.949463 7.19248C0.949463 7.35757 0.985052 7.52072 1.0538 7.67081C1.56597 8.78964 3.57439 12.4419 7.94939 12.4419C12.3244 12.4419 14.3328 8.78964 14.845 7.66964C14.9136 7.51972 14.9491 7.35677 14.9491 7.19189C14.9491 7.02701 14.9136 6.86407 14.845 6.71414ZM7.94939 11.2752C4.2703 11.2752 2.55355 8.14506 2.11605 7.19831C2.55355 6.23873 4.2703 3.10856 7.94939 3.10856C11.6197 3.10856 13.3371 6.22531 13.7827 7.19189C13.3371 8.15848 11.6197 11.2752 7.94939 11.2752Z" fill="#3BB77E"/>
<path d="M7.94938 4.27527C7.37252 4.27527 6.80861 4.44633 6.32897 4.76682C5.84933 5.0873 5.47549 5.54282 5.25473 6.07578C5.03398 6.60873 4.97622 7.19517 5.08876 7.76095C5.2013 8.32673 5.47908 8.84643 5.88699 9.25433C6.29489 9.66223 6.81459 9.94002 7.38037 10.0526C7.94615 10.1651 8.53259 10.1073 9.06554 9.88659C9.59849 9.66583 10.054 9.29199 10.3745 8.81235C10.695 8.33271 10.866 7.7688 10.866 7.19194C10.8651 6.41867 10.5575 5.67734 10.0108 5.13056C9.46397 4.58378 8.72265 4.27619 7.94938 4.27527ZM7.94938 8.94194C7.60327 8.94194 7.26492 8.8393 6.97713 8.64701C6.68935 8.45472 6.46505 8.1814 6.33259 7.86163C6.20014 7.54186 6.16548 7.18999 6.23301 6.85053C6.30053 6.51106 6.4672 6.19924 6.71195 5.9545C6.95669 5.70976 7.26851 5.54309 7.60797 5.47556C7.94744 5.40804 8.29931 5.44269 8.61908 5.57515C8.93885 5.7076 9.21216 5.9319 9.40445 6.21969C9.59675 6.50747 9.69938 6.84582 9.69938 7.19194C9.69938 7.65606 9.51501 8.10118 9.18682 8.42937C8.85863 8.75756 8.41351 8.94194 7.94938 8.94194Z" fill="#3BB77E"/>
</g>
<defs>
<clipPath id="clip0_96_4528">
<rect width="14" height="14" fill="white" transform="translate(0.949341 0.191895)"/>
</clipPath>
</defs>
</svg>
