<svg width="24" height="25" viewBox="0 0 24 25" fill="none" xmlns="http://www.w3.org/2000/svg">
<g id="fi-rs-settings 1" clip-path="url(#clip0_142_5125)">
<g id="01 align center">
<path id="Vector" d="M15.0004 24.109H9.00042V20.596C7.95768 20.2271 6.99187 19.6691 6.15142 18.95L3.10742 20.709L0.107422 15.509L3.15042 13.754C2.95053 12.6665 2.95053 11.5516 3.15042 10.464L0.107422 8.70901L3.10742 3.50901L6.15142 5.26801C6.99187 4.54893 7.95768 3.99094 9.00042 3.62201V0.109009H15.0004V3.62201C16.0432 3.99094 17.009 4.54893 17.8494 5.26801L20.8934 3.50901L23.8934 8.70901L20.8504 10.464C21.0503 11.5516 21.0503 12.6665 20.8504 13.754L23.8934 15.509L20.8934 20.709L17.8494 18.951C17.0089 19.6697 16.0431 20.2274 15.0004 20.596V24.109ZM11.0004 22.109H13.0004V19.082L13.7514 18.888C14.9834 18.5689 16.1048 17.9191 16.9944 17.009L17.5374 16.456L20.1604 17.971L21.1604 16.239L18.5404 14.726L18.7464 13.98C19.0851 12.7529 19.0851 11.4571 18.7464 10.23L18.5404 9.48401L21.1604 7.97101L20.1604 6.23901L17.5374 7.75801L16.9944 7.20901C16.1043 6.30035 14.983 5.65203 13.7514 5.33401L13.0004 5.13601V2.10901H11.0004V5.13601L10.2494 5.33001C9.01741 5.64916 7.89603 6.29889 7.00642 7.20901L6.46342 7.76201L3.84042 6.24301L2.84042 7.97501L5.46042 9.48801L5.25442 10.234C4.91578 11.4611 4.91578 12.7569 5.25442 13.984L5.46042 14.73L2.84042 16.243L3.84042 17.975L6.46342 16.46L7.00642 17.013C7.89651 17.9217 9.01785 18.57 10.2494 18.888L11.0004 19.082V22.109ZM12.0004 16.109C11.2093 16.109 10.4359 15.8744 9.77814 15.4349C9.12034 14.9954 8.60765 14.3706 8.3049 13.6397C8.00215 12.9088 7.92294 12.1046 8.07728 11.3286C8.23162 10.5527 8.61258 9.83999 9.17199 9.28058C9.7314 8.72117 10.4441 8.34021 11.2201 8.18587C11.996 8.03153 12.8003 8.11074 13.5312 8.41349C14.2621 8.71624 14.8868 9.22893 15.3263 9.88673C15.7658 10.5445 16.0004 11.3179 16.0004 12.109C16.0004 13.1699 15.579 14.1873 14.8288 14.9374C14.0787 15.6876 13.0613 16.109 12.0004 16.109ZM12.0004 10.109C11.6049 10.109 11.2182 10.2263 10.8893 10.4461C10.5604 10.6658 10.304 10.9782 10.1527 11.3436C10.0013 11.7091 9.96168 12.1112 10.0389 12.4992C10.116 12.8872 10.3065 13.2435 10.5862 13.5232C10.8659 13.8029 11.2223 13.9934 11.6102 14.0706C11.9982 14.1477 12.4003 14.1081 12.7658 13.9568C13.1312 13.8054 13.4436 13.549 13.6634 13.2201C13.8831 12.8913 14.0004 12.5046 14.0004 12.109C14.0004 11.5786 13.7897 11.0699 13.4146 10.6948C13.0396 10.3197 12.5309 10.109 12.0004 10.109Z" fill="#7E7E7E"/>
</g>
</g>
<defs>
<clipPath id="clip0_142_5125">
<rect width="24" height="24" fill="white" transform="translate(0 0.109009)"/>
</clipPath>
</defs>
</svg>
