<svg width="20" height="21" viewBox="0 0 20 21" fill="none" xmlns="http://www.w3.org/2000/svg">
<g clip-path="url(#clip0_215_13731)">
<path d="M18.3334 1.85588V4.65754C17.3771 3.21738 16.0638 2.04972 14.5216 1.26851C12.9795 0.487293 11.2611 0.119214 9.5343 0.200186C7.80746 0.281158 6.13109 0.808415 4.6688 1.73051C3.20651 2.6526 2.00823 3.93803 1.19091 5.46136C0.373586 6.98469 -0.0348704 8.69388 0.00539962 10.4222C0.0456696 12.1504 0.533291 13.8387 1.42068 15.3224C2.30807 16.806 3.56491 18.0342 5.06856 18.8872C6.57222 19.7402 8.27132 20.1888 10.0001 20.1892V18.5225C8.53742 18.5219 7.10073 18.1362 5.83435 17.4044C4.56797 16.6725 3.51652 15.6203 2.78565 14.3533C2.05479 13.0864 1.67025 11.6494 1.67068 10.1867C1.67112 8.7241 2.05651 7.28734 2.78812 6.02083C3.51974 4.75432 4.57182 3.70269 5.83863 2.97159C7.10544 2.2405 8.54237 1.8557 10.005 1.85588C11.4676 1.85605 12.9045 2.24119 14.1711 2.97258C15.4377 3.70397 16.4896 4.75586 17.2209 6.02254H14.1667V7.68921H18.3334C18.7754 7.68921 19.1993 7.51362 19.5119 7.20106C19.8245 6.88849 20.0001 6.46457 20.0001 6.02254V1.85588H18.3334Z" fill="#253D4E"/>
<path d="M10.8335 11.0225H5.8335V9.35588H9.16683V5.18921H10.8335V11.0225Z" fill="#253D4E"/>
<path d="M17.5 20.1892C16.837 20.1892 16.2011 19.9258 15.7322 19.457C15.2634 18.9881 15 18.3523 15 17.6892V15.1892C15 14.5262 15.2634 13.8903 15.7322 13.4214C16.2011 12.9526 16.837 12.6892 17.5 12.6892C18.163 12.6892 18.7989 12.9526 19.2678 13.4214C19.7366 13.8903 20 14.5262 20 15.1892V17.6892C20 18.3523 19.7366 18.9881 19.2678 19.457C18.7989 19.9258 18.163 20.1892 17.5 20.1892ZM17.5 14.3559C17.279 14.3559 17.067 14.4437 16.9107 14.6C16.7545 14.7562 16.6667 14.9682 16.6667 15.1892V17.6892C16.6667 17.9102 16.7545 18.1222 16.9107 18.2785C17.067 18.4347 17.279 18.5225 17.5 18.5225C17.721 18.5225 17.933 18.4347 18.0893 18.2785C18.2455 18.1222 18.3333 17.9102 18.3333 17.6892V15.1892C18.3333 14.9682 18.2455 14.7562 18.0893 14.6C17.933 14.4437 17.721 14.3559 17.5 14.3559Z" fill="#253D4E"/>
<path d="M14.1666 20.1893H12.5V15.5343L11.4225 16.6118L10.2441 15.4334L12.7441 12.9334C12.8607 12.8169 13.0091 12.7376 13.1708 12.7055C13.3324 12.6733 13.4999 12.6898 13.6522 12.7529C13.8044 12.8159 13.9346 12.9227 14.0261 13.0597C14.1177 13.1967 14.1666 13.3578 14.1666 13.5226V20.1893Z" fill="#253D4E"/>
</g>
<defs>
<clipPath id="clip0_215_13731">
<rect width="20" height="20" fill="white" transform="translate(0 0.189209)"/>
</clipPath>
</defs>
</svg>
